<?xml version="1.0" encoding="UTF-8" standalone="no"?>
<svg
   xmlns:dc="http://purl.org/dc/elements/1.1/"
   xmlns:cc="http://creativecommons.org/ns#"
   xmlns:rdf="http://www.w3.org/1999/02/22-rdf-syntax-ns#"
   xmlns:svg="http://www.w3.org/2000/svg"
   xmlns="http://www.w3.org/2000/svg"
   xmlns:sodipodi="http://sodipodi.sourceforge.net/DTD/sodipodi-0.dtd"
   xmlns:inkscape="http://www.inkscape.org/namespaces/inkscape"
   version="1.1"
   x="0px"
   y="0px"
   viewBox="0 0 100 125"
   enable-background="new 0 0 100 100"
   xml:space="preserve"
   id="svg839"
   sodipodi:docname="Carrot.svg"
   inkscape:export-filename="/Users/leonardcolin/Desktop/OpenClassRooms/Formation_Python/Projets/projet_8/pur_beurre/home/static/main/img/carrot2.png"
   inkscape:export-xdpi="96"
   inkscape:export-ydpi="96"
   inkscape:version="1.0.1 (c497b03c, 2020-09-10)"><metadata
     id="metadata845"><rdf:RDF><cc:Work
         rdf:about=""><dc:format>image/svg+xml</dc:format><dc:type
           rdf:resource="http://purl.org/dc/dcmitype/StillImage" /></cc:Work></rdf:RDF></metadata><defs
     id="defs843" /><sodipodi:namedview
     pagecolor="#ffffff"
     bordercolor="#666666"
     borderopacity="1"
     objecttolerance="10"
     gridtolerance="10"
     guidetolerance="10"
     inkscape:pageopacity="0"
     inkscape:pageshadow="2"
     inkscape:window-width="1440"
     inkscape:window-height="847"
     id="namedview841"
     showgrid="false"
     inkscape:zoom="5.336"
     inkscape:cx="41.004498"
     inkscape:cy="71.12069"
     inkscape:window-x="1920"
     inkscape:window-y="109"
     inkscape:window-maximized="1"
     inkscape:current-layer="svg839" /><path
     d="m 97.576693,37.879025 c 0.739574,-1.336859 0.465043,-3.028218 -0.653291,-4.041237 -3.438238,-3.11844 -7.75523,-4.875849 -12.228585,-5.083716 0.110259,-0.154692 0.236189,-0.295813 0.344802,-0.453708 C 89.791182,21.392519 91.285604,12.728567 89.141093,4.5309447 88.753463,3.0457582 87.404071,2.0485405 85.923129,2.1528204 77.74512,2.7239349 70.330146,7.0125144 65.579489,13.919045 65.368611,14.225633 65.191028,14.550853 64.992361,14.864464 63.433616,10.166 60.307265,6.1626833 56.072829,3.6505981 54.78435,2.8849458 53.151321,3.1685738 52.173998,4.3277503 c -3.95328,4.6895338 -5.65148,10.8967587 -4.65916,17.0282927 0.482408,2.984158 1.582636,5.752106 3.177165,8.182786 -5.924207,0.774033 -11.534102,3.98328 -15.264762,9.406926 -3.791286,5.511801 -13.144139,25.408315 -22.447971,45.843163 -0.02407,0.03175 -0.05237,0.05663 -0.07494,0.08948 -0.253446,0.368435 -0.420167,0.775091 -0.507166,1.191073 -2.124114,4.671915 -4.2407861,9.355283 -6.2811058,13.888675 -1.1228178,2.492504 -1.9558443,4.343774 -2.396705,5.302034 -3.76184999,8.19693 -1.8163954,11.78202 2.8144309,15.20427 4.7425309,3.5048 8.6896889,4.26055 14.8285589,-2.24524 1.171905,-1.24161 4.369396,-4.4594 8.41399,-8.53568 17.873099,-17.997875 37.307326,-37.733652 41.690527,-44.105971 3.730655,-5.423646 4.829052,-11.966963 3.603916,-18.024458 2.737615,0.768848 5.618639,0.945089 8.498907,0.446006 5.90985,-1.028741 11.017699,-4.716181 14.007131,-10.12 z M 83.661868,8.9640426 c 0.73025,5.4714694 -0.565261,11.0236624 -3.700383,15.5815264 -3.109785,4.521022 -7.717568,7.609518 -12.969864,8.695525 -0.01095,0.0019 -0.02262,0.0049 -0.03356,0.0069 -0.732823,-5.515046 0.57847,-11.045655 3.697306,-15.579836 3.135124,-4.557861 7.778081,-7.636244 13.006466,-8.7041963 z M 55.247899,10.945752 c 2.352762,2.149523 3.910697,5.045377 4.435733,8.293237 0.524131,3.249187 -0.04891,6.52903 -1.584113,9.339931 -2.353118,-2.151784 -3.910702,-5.045376 -4.436098,-8.295493 -0.525941,-3.246549 0.04832,-6.525458 1.584478,-9.337675 z m 11.135195,50.876827 c -4.422115,6.428901 -28.188448,30.363889 -40.956913,43.223161 -4.237263,4.26731 -7.299138,7.34915 -8.526081,8.65132 -3.606946,3.82416 -4.211182,3.37762 -6.750016,1.50139 -2.5274043,-1.8678 -3.0529363,-2.25618 -0.8014357,-7.16339 0.4446386,-0.96937 1.2841897,-2.83566 2.4149727,-5.34808 1.290321,-2.866848 3.011,-6.687802 4.971394,-11.010355 l 6.218859,4.595831 c 1.401434,1.035674 3.349763,0.697295 4.34895,-0.755326 0.999183,-1.452623 0.67272,-3.472116 -0.728716,-4.507794 l -7.136645,-5.274085 c 1.117603,-2.448723 2.279351,-4.983895 3.461012,-7.548011 l 8.284198,6.122143 c 1.401431,1.035679 3.349758,0.697298 4.348949,-0.755327 0.999184,-1.452621 0.672717,-3.472112 -0.728714,-4.50779 l -9.166444,-6.774138 c 1.236861,-2.65828 2.47374,-5.288758 3.680785,-7.834112 l 10.298761,7.610932 c 1.401433,1.035682 3.349766,0.69729 4.34895,-0.755327 0.999184,-1.452623 0.672724,-3.472111 -0.728714,-4.507794 L 32.127597,58.57637 c 3.59596,-7.418507 6.684383,-13.419973 8.376845,-15.88048 5.087335,-7.395999 15.031202,-9.123052 22.166578,-3.849906 7.135385,5.273155 8.800319,15.579281 3.712074,22.976595 z m 16.150993,-20.20132 c -3.133421,0.544209 -6.282463,-0.03849 -9.011178,-1.644225 2.063293,-2.420651 4.867953,-4.051282 8.002275,-4.596819 3.132148,-0.545145 6.282452,0.03849 9.009905,1.643289 -2.064197,2.421961 -4.867586,4.053538 -8.001002,4.597755 z"
     id="path833"
     inkscape:export-xdpi="96"
     inkscape:export-ydpi="96"
     style="opacity:1;fill:#c45525;fill-opacity:1;fill-rule:nonzero;stroke:#c45525;stroke-width:3.71316;stroke-miterlimit:4;stroke-dasharray:none;stroke-opacity:1" /></svg>
